<?xml version="1.0" encoding="UTF-8"?>
<svg width="259" height="154" viewBox="0 0 259 154" fill="none" xmlns="http://www.w3.org/2000/svg">
<path d="M64.968 92.448C62.1307 92.448 59.5733 91.8133 57.296 90.544C55.0187 89.2373 53.208 87.4267 51.864 85.112C50.5573 82.7973 49.904 80.072 49.904 76.936C49.904 73.7627 50.5573 71.0187 51.864 68.704C53.208 66.3893 55.0187 64.5973 57.296 63.328C59.5733 62.0587 62.1307 61.424 64.968 61.424C67.5067 61.424 69.728 61.984 71.632 63.104C73.536 64.224 75.0107 65.9227 76.056 68.2C77.1013 70.4773 77.624 73.3893 77.624 76.936C77.624 80.4453 77.12 83.3573 76.112 85.672C75.104 87.9493 73.648 89.648 71.744 90.768C69.8773 91.888 67.6187 92.448 64.968 92.448ZM66.48 85.28C67.8987 85.28 69.1867 84.944 70.344 84.272C71.5013 83.6 72.416 82.648 73.088 81.416C73.7973 80.1467 74.152 78.6533 74.152 76.936C74.152 75.1813 73.7973 73.688 73.088 72.456C72.416 71.224 71.5013 70.272 70.344 69.6C69.1867 68.928 67.8987 68.592 66.48 68.592C65.024 68.592 63.7173 68.928 62.56 69.6C61.4027 70.272 60.4693 71.224 59.76 72.456C59.088 73.688 58.752 75.1813 58.752 76.936C58.752 78.6533 59.088 80.1467 59.76 81.416C60.4693 82.648 61.4027 83.6 62.56 84.272C63.7173 84.944 65.024 85.28 66.48 85.28ZM74.376 92V85.84L74.544 76.88L73.984 67.976V50.448H82.72V92H74.376ZM105.141 92.448C101.931 92.448 99.0748 91.776 96.5734 90.432C94.1094 89.088 92.1494 87.2587 90.6934 84.944C89.2748 82.592 88.5654 79.9227 88.5654 76.936C88.5654 73.912 89.2748 71.2427 90.6934 68.928C92.1494 66.576 94.1094 64.7467 96.5734 63.44C99.0748 62.096 101.931 61.424 105.141 61.424C108.315 61.424 111.152 62.096 113.653 63.44C116.155 64.7467 118.115 66.5573 119.533 68.872C120.952 71.1867 121.661 73.8747 121.661 76.936C121.661 79.9227 120.952 82.592 119.533 84.944C118.115 87.2587 116.155 89.088 113.653 90.432C111.152 91.776 108.315 92.448 105.141 92.448ZM105.141 85.28C106.597 85.28 107.904 84.944 109.061 84.272C110.219 83.6 111.133 82.648 111.805 81.416C112.477 80.1467 112.813 78.6533 112.813 76.936C112.813 75.1813 112.477 73.688 111.805 72.456C111.133 71.224 110.219 70.272 109.061 69.6C107.904 68.928 106.597 68.592 105.141 68.592C103.685 68.592 102.379 68.928 101.221 69.6C100.064 70.272 99.1308 71.224 98.4214 72.456C97.7494 73.688 97.4134 75.1813 97.4134 76.936C97.4134 78.6533 97.7494 80.1467 98.4214 81.416C99.1308 82.648 100.064 83.6 101.221 84.272C102.379 84.944 103.685 85.28 105.141 85.28ZM166.085 61.424C168.474 61.424 170.583 61.9093 172.413 62.88C174.279 63.8133 175.735 65.2693 176.781 67.248C177.863 69.1893 178.405 71.6907 178.405 74.752V92H169.669V76.096C169.669 73.6693 169.165 71.8773 168.157 70.72C167.149 69.5627 165.73 68.984 163.901 68.984C162.631 68.984 161.493 69.2827 160.485 69.88C159.477 70.44 158.693 71.2987 158.133 72.456C157.573 73.6133 157.293 75.088 157.293 76.88V92H148.557V76.096C148.557 73.6693 148.053 71.8773 147.045 70.72C146.074 69.5627 144.674 68.984 142.845 68.984C141.575 68.984 140.437 69.2827 139.429 69.88C138.421 70.44 137.637 71.2987 137.077 72.456C136.517 73.6133 136.237 75.088 136.237 76.88V92H127.501V61.872H135.845V70.104L134.277 67.696C135.322 65.6427 136.797 64.0933 138.701 63.048C140.642 61.9653 142.845 61.424 145.309 61.424C148.071 61.424 150.479 62.1333 152.533 63.552C154.623 64.9333 156.005 67.0613 156.677 69.936L153.597 69.096C154.605 66.744 156.21 64.8773 158.413 63.496C160.653 62.1147 163.21 61.424 166.085 61.424ZM200.79 92.448C197.579 92.448 194.723 91.776 192.222 90.432C189.758 89.088 187.798 87.2587 186.342 84.944C184.923 82.592 184.214 79.9227 184.214 76.936C184.214 73.912 184.923 71.2427 186.342 68.928C187.798 66.576 189.758 64.7467 192.222 63.44C194.723 62.096 197.579 61.424 200.79 61.424C203.963 61.424 206.801 62.096 209.302 63.44C211.803 64.7467 213.763 66.5573 215.182 68.872C216.601 71.1867 217.31 73.8747 217.31 76.936C217.31 79.9227 216.601 82.592 215.182 84.944C213.763 87.2587 211.803 89.088 209.302 90.432C206.801 91.776 203.963 92.448 200.79 92.448ZM200.79 85.28C202.246 85.28 203.553 84.944 204.71 84.272C205.867 83.6 206.782 82.648 207.454 81.416C208.126 80.1467 208.462 78.6533 208.462 76.936C208.462 75.1813 208.126 73.688 207.454 72.456C206.782 71.224 205.867 70.272 204.71 69.6C203.553 68.928 202.246 68.592 200.79 68.592C199.334 68.592 198.027 68.928 196.87 69.6C195.713 70.272 194.779 71.224 194.07 72.456C193.398 73.688 193.062 75.1813 193.062 76.936C193.062 78.6533 193.398 80.1467 194.07 81.416C194.779 82.648 195.713 83.6 196.87 84.272C198.027 84.944 199.334 85.28 200.79 85.28ZM233.285 92.448C230.709 92.448 228.227 92.1493 225.837 91.552C223.485 90.9173 221.619 90.1333 220.237 89.2L223.149 82.928C224.531 83.7867 226.155 84.496 228.021 85.056C229.925 85.5787 231.792 85.84 233.621 85.84C235.637 85.84 237.056 85.5973 237.877 85.112C238.736 84.6267 239.165 83.9547 239.165 83.096C239.165 82.3867 238.829 81.864 238.157 81.528C237.523 81.1547 236.664 80.8747 235.581 80.688C234.499 80.5013 233.304 80.3147 231.997 80.128C230.728 79.9413 229.44 79.6987 228.133 79.4C226.827 79.064 225.632 78.5787 224.549 77.944C223.467 77.3093 222.589 76.4507 221.917 75.368C221.283 74.2853 220.965 72.8853 220.965 71.168C220.965 69.264 221.507 67.584 222.589 66.128C223.709 64.672 225.315 63.5333 227.405 62.712C229.496 61.8533 231.997 61.424 234.909 61.424C236.963 61.424 239.053 61.648 241.181 62.096C243.309 62.544 245.083 63.1973 246.501 64.056L243.589 70.272C242.133 69.4133 240.659 68.8347 239.165 68.536C237.709 68.2 236.291 68.032 234.909 68.032C232.968 68.032 231.549 68.2933 230.653 68.816C229.757 69.3387 229.309 70.0107 229.309 70.832C229.309 71.5787 229.627 72.1387 230.261 72.512C230.933 72.8853 231.811 73.184 232.893 73.408C233.976 73.632 235.152 73.8373 236.421 74.024C237.728 74.1733 239.035 74.416 240.341 74.752C241.648 75.088 242.824 75.5733 243.869 76.208C244.952 76.8053 245.829 77.6453 246.501 78.728C247.173 79.7733 247.509 81.1547 247.509 82.872C247.509 84.7387 246.949 86.4 245.829 87.856C244.709 89.2747 243.085 90.3947 240.957 91.216C238.867 92.0373 236.309 92.448 233.285 92.448Z" fill="black"/>
<line x1="153" y1="126.25" x2="21" y2="126.25" stroke="black" stroke-width="3"/>
<g filter="url(#filter0_d_2809_296)">
<line x1="22.5" y1="124.75" x2="22.5" y2="76" stroke="black" stroke-width="3"/>
</g>
<g filter="url(#filter1_d_2809_296)">
<line x1="151.5" y1="126" x2="151.5" y2="106" stroke="black" stroke-width="3"/>
</g>
<line y1="-1.5" x2="132" y2="-1.5" transform="matrix(-1 -1.0628e-09 -1.11713e-09 1 153 27.25)" stroke="black" stroke-width="3"/>
<g filter="url(#filter2_d_2809_296)">
<line y1="-1.5" x2="48.75" y2="-1.5" transform="matrix(0 1 1 0 24 27.25)" stroke="black" stroke-width="3"/>
</g>
<g filter="url(#filter3_d_2809_296)">
<line y1="-1.5" x2="20" y2="-1.5" transform="matrix(0 1 1 0 153 26)" stroke="black" stroke-width="3"/>
</g>
<defs>
<filter id="filter0_d_2809_296" x="17" y="76" width="11" height="56.75" filterUnits="userSpaceOnUse" color-interpolation-filters="sRGB">
<feFlood flood-opacity="0" result="BackgroundImageFix"/>
<feColorMatrix in="SourceAlpha" type="matrix" values="0 0 0 0 0 0 0 0 0 0 0 0 0 0 0 0 0 0 127 0" result="hardAlpha"/>
<feOffset dy="4"/>
<feGaussianBlur stdDeviation="2"/>
<feComposite in2="hardAlpha" operator="out"/>
<feColorMatrix type="matrix" values="0 0 0 0 0 0 0 0 0 0 0 0 0 0 0 0 0 0 0.25 0"/>
<feBlend mode="normal" in2="BackgroundImageFix" result="effect1_dropShadow_2809_296"/>
<feBlend mode="normal" in="SourceGraphic" in2="effect1_dropShadow_2809_296" result="shape"/>
</filter>
<filter id="filter1_d_2809_296" x="146" y="106" width="11" height="28" filterUnits="userSpaceOnUse" color-interpolation-filters="sRGB">
<feFlood flood-opacity="0" result="BackgroundImageFix"/>
<feColorMatrix in="SourceAlpha" type="matrix" values="0 0 0 0 0 0 0 0 0 0 0 0 0 0 0 0 0 0 127 0" result="hardAlpha"/>
<feOffset dy="4"/>
<feGaussianBlur stdDeviation="2"/>
<feComposite in2="hardAlpha" operator="out"/>
<feColorMatrix type="matrix" values="0 0 0 0 0 0 0 0 0 0 0 0 0 0 0 0 0 0 0.25 0"/>
<feBlend mode="normal" in2="BackgroundImageFix" result="effect1_dropShadow_2809_296"/>
<feBlend mode="normal" in="SourceGraphic" in2="effect1_dropShadow_2809_296" result="shape"/>
</filter>
<filter id="filter2_d_2809_296" x="17" y="27.25" width="11" height="56.75" filterUnits="userSpaceOnUse" color-interpolation-filters="sRGB">
<feFlood flood-opacity="0" result="BackgroundImageFix"/>
<feColorMatrix in="SourceAlpha" type="matrix" values="0 0 0 0 0 0 0 0 0 0 0 0 0 0 0 0 0 0 127 0" result="hardAlpha"/>
<feOffset dy="4"/>
<feGaussianBlur stdDeviation="2"/>
<feComposite in2="hardAlpha" operator="out"/>
<feColorMatrix type="matrix" values="0 0 0 0 0 0 0 0 0 0 0 0 0 0 0 0 0 0 0.25 0"/>
<feBlend mode="normal" in2="BackgroundImageFix" result="effect1_dropShadow_2809_296"/>
<feBlend mode="normal" in="SourceGraphic" in2="effect1_dropShadow_2809_296" result="shape"/>
</filter>
<filter id="filter3_d_2809_296" x="146" y="26" width="11" height="28" filterUnits="userSpaceOnUse" color-interpolation-filters="sRGB">
<feFlood flood-opacity="0" result="BackgroundImageFix"/>
<feColorMatrix in="SourceAlpha" type="matrix" values="0 0 0 0 0 0 0 0 0 0 0 0 0 0 0 0 0 0 127 0" result="hardAlpha"/>
<feOffset dy="4"/>
<feGaussianBlur stdDeviation="2"/>
<feComposite in2="hardAlpha" operator="out"/>
<feColorMatrix type="matrix" values="0 0 0 0 0 0 0 0 0 0 0 0 0 0 0 0 0 0 0.25 0"/>
<feBlend mode="normal" in2="BackgroundImageFix" result="effect1_dropShadow_2809_296"/>
<feBlend mode="normal" in="SourceGraphic" in2="effect1_dropShadow_2809_296" result="shape"/>
</filter>
</defs>
</svg>
